<svg aria-hidden="true" style="width:0;height:0;position:absolute;overflow:hidden" xmlns="http://www.w3.org/2000/svg"><defs><symbol id="icon-long-arrow" viewBox="0 0 82 32"><path d="M81.414 17.414a2 2 0 0 0 0-2.828L68.686 1.858a2 2 0 1 0-2.828 2.828L77.172 16 65.858 27.314a2 2 0 1 0 2.828 2.828l12.728-12.728zM0 18h80v-4H0v4z"/></symbol><symbol id="icon-burger-menu" viewBox="0 0 32 32"><path fill="none" stroke="#fff" style="stroke:var(--color1,#fff)" stroke-linecap="round" stroke-width="2" d="M6 10h20M6 16h20M6 22h20"/></symbol><symbol id="icon-cow" viewBox="0 0 31 32"><path d="M6.002.778c-.254.219-.979 1.733-1.24 2.559-.31 1.024-.416 1.791-.373 2.852.056 1.514.437 2.661 1.275 3.861.218.314.394.585.394.607 0 .015-.134.029-.303.029-.726 0-2.085.241-3.128.556C.972 11.739 0 12.609 0 13.582c0 .344.31.929.641 1.228.641.578 2.043 1.126 3.55 1.389.521.095 2.071.256 2.416.263.063 0 .085.336.085 1.44 0 .951.035 1.689.106 2.142.254 1.623 1.043 3.341 2.085 4.555l.359.417-.24.387c-.352.548-.486.965-.528 1.587-.106 1.492.824 2.815 2.62 3.744 3.423 1.777 8.742 1.082 10.735-1.404.972-1.214 1.085-2.603.317-3.861l-.239-.388.43-.519c.803-.965 1.324-1.93 1.719-3.151.331-1.038.458-2.04.458-3.627 0-.724.021-1.323.056-1.323.324-.007 1.881-.175 2.374-.263 1.515-.263 2.888-.804 3.55-1.389.331-.3.641-.885.641-1.228 0-1.082-1.099-1.96-3.142-2.486-.669-.175-1.93-.387-2.543-.424l-.289-.022.317-.439c.394-.534.888-1.572 1.078-2.252.535-1.967.204-4.255-.944-6.442-.479-.907-.81-1.119-1.198-.76-.148.139-.211.329-.352 1.016-.437 2.186-1.247 3.919-2.43 5.199l-.521.57H9.967l-.465-.505c-1.155-1.272-1.993-3.071-2.43-5.264-.141-.687-.204-.877-.352-1.016-.232-.212-.458-.205-.718.022zm.901 4.336c.373.819.838 1.587 1.388 2.296l.437.563-.458.344a4.6 4.6 0 0 0-1.141 1.331l-.134.241-.338-.461c-1.155-1.594-1.444-3.546-.831-5.571.296-.98.289-.972.556-.124.127.409.366 1.031.521 1.382zm18.336-1.543a7.22 7.22 0 0 1 .402 2.464c0 1.331-.352 2.457-1.092 3.466l-.331.453-.247-.417a4.38 4.38 0 0 0-1.233-1.353c-.19-.124-.338-.249-.338-.263 0-.022.134-.19.303-.373.782-.87 1.62-2.435 2.036-3.78.127-.417.254-.76.275-.76s.127.256.225.563zM21.64 8.916c.782.329 1.529 1.272 1.648 2.069.063.439.211.717.402.76.084.015.669.066 1.296.11 2.226.146 3.98.621 4.727 1.272.345.307.31.563-.106.877-.831.629-2.627 1.104-4.459 1.184-1.212.051-1.465.088-1.627.256-.12.124-.134.256-.134 1.579 0 1.791-.092 2.822-.317 3.656-.317 1.133-.944 2.34-1.677 3.195l-.303.351-.627-.373a7.77 7.77 0 0 0-2.325-.943c-2.67-.636-5.621-.249-7.608 1.002l-.458.293-.289-.344c-.394-.461-1.014-1.448-1.261-2.003-.542-1.258-.704-2.281-.704-4.533 0-2.186.113-2.025-1.507-2.113-2.071-.11-3.649-.483-4.642-1.111-.733-.468-.613-.885.409-1.375.979-.475 2.325-.76 4.191-.877 1.451-.095 1.486-.117 1.62-.819.197-1.06.979-1.938 1.965-2.215.246-.073 1.627-.088 5.854-.08l5.53.015.401.168zm-3.959 15.135c1.726.424 3.015 1.214 3.571 2.193.134.227.19.461.218.819.028.446.007.556-.162.921-.782 1.66-3.656 2.756-6.579 2.508-3.515-.293-5.826-2.252-4.917-4.175.493-1.038 2.163-2.033 3.924-2.325.289-.044.578-.095.634-.11s.69-.015 1.409 0c.979.022 1.451.066 1.902.168z"/><path d="M10.693 12.579c-.437.146-.733.336-1.127.731-.345.329-.373.717-.085.95.268.219.521.19.845-.095.409-.358.726-.504 1.12-.504.394-.007.697.132 1.12.504.324.285.578.314.845.095.141-.117.183-.212.183-.431 0-.227-.049-.329-.296-.578-.697-.702-1.733-.972-2.606-.673zM18.906 12.571c-.451.168-1.029.548-1.261.833-.225.278-.232.592 0 .826.232.249.514.234.852-.044.831-.687 1.451-.709 2.219-.073.197.168.423.3.493.3.345 0 .627-.307.627-.673 0-.234-.585-.775-1.113-1.031-.585-.285-1.282-.336-1.817-.139zM11.714 26.106c-.204.197-.275.483-.169.709.078.183.197.256.683.388.218.058.31.132.387.314.099.241.106.241.648.263l.542.022v-.205c-.007-.293-.169-.717-.38-1.009-.247-.336-.676-.556-1.162-.6-.331-.029-.416-.015-.549.117zM18.442 26.054c-.352.095-.859.57-1 .943a2.54 2.54 0 0 0-.134.665c-.014.314.014.388.183.541.416.366.965.08.965-.504 0-.285.211-.483.585-.556.394-.073.535-.234.542-.607 0-.49-.437-.68-1.141-.483z"/></symbol><symbol id="icon-facebook" viewBox="0 0 31 32"><path fill="#f8d24e" style="fill:var(--color2,#f8d24e)" d="M15.515 31.948c8.569 0 15.515-6.948 15.515-15.519S24.084.91 15.515.91 0 7.858 0 16.429s6.946 15.519 15.515 15.519z"/><path d="M19.826 16.412h-2.531v9.329H13.46v-9.329h-1.824v-3.279h1.824v-2.122c0-1.517.716-3.893 3.869-3.893l2.841.012v3.183h-2.061c-.338 0-.813.17-.813.894v1.93h2.866l-.335 3.276z"/></symbol><symbol id="icon-short-arrow" viewBox="0 0 32 32"><path d="m14.019 17.062-8.5 8.5a1.493 1.493 0 0 1-2.119 0L1.987 24.15a1.495 1.495 0 0 1 0-2.119l6.025-6.025-6.025-6.025a1.495 1.495 0 0 1 0-2.119l1.406-1.425a1.493 1.493 0 0 1 2.119 0l8.5 8.5c.594.588.594 1.538.006 2.125z"/></symbol><symbol id="icon-github" viewBox="0 0 31 32"><path fill="#f8d24e" style="fill:var(--color2,#f8d24e)" d="M31.03 16.43c0 8.571-6.946 15.519-15.515 15.519S0 25.001 0 16.43 6.946.911 15.515.911 31.03 7.859 31.03 16.43z"/><path d="M15.515 7.301c-5.013 0-9.127 4.115-9.127 9.129 0 4.279 3.002 8.165 6.988 9.129v-3.02a2.22 2.22 0 0 1-1.16-.03c-.539-.159-.978-.519-1.303-1.067-.207-.35-.575-.729-.958-.701l-.094-1.066c.829-.071 1.546.505 1.972 1.221.189.318.407.505.686.587.27.079.56.041.898-.078.085-.677.395-.93.629-1.286-2.377-.355-3.325-1.616-3.701-2.612-.498-1.322-.231-2.974.65-4.017.017-.02.048-.074.036-.111-.404-1.221.088-2.23.106-2.338.466.138.542-.139 2.025.763l.256.154c.107.064.073.027.181.019a7.735 7.735 0 0 1 1.915-.269 7.768 7.768 0 0 1 1.942.276l.083.008c-.007-.001.023-.005.073-.035 1.853-1.123 1.786-.756 2.283-.917.018.107.504 1.133.104 2.339-.054.166 1.606 1.687.686 4.128-.376.996-1.323 2.257-3.7 2.612.305.465.671.712.669 1.67v3.77c3.986-.963 6.988-4.85 6.988-9.129 0-5.014-4.114-9.129-9.126-9.129z"/></symbol><symbol id="icon-close" viewBox="0 0 32 32"><path d="m17.253 16 7.369-7.369a.886.886 0 0 0-.047-1.207.89.89 0 0 0-1.206-.047L16 14.746 8.631 7.368A.892.892 0 0 0 7.369 8.63l7.378 7.369-7.378 7.369a.891.891 0 0 0-.05 1.304.89.89 0 0 0 1.304-.051l7.378-7.369 7.369 7.369a.885.885 0 0 0 1.206-.047.89.89 0 0 0 .047-1.206l-7.369-7.369z"/></symbol><symbol id="icon-faces" viewBox="0 0 30 32"><path fill="#fff" style="fill:var(--color1,#fff)" d="M16.536 8.8c.637.35 1.64-.169 2.242-1.159s.573-2.075-.063-2.424c-.637-.35-1.64.169-2.242 1.158s-.573 2.075.063 2.424z"/><path style="fill:var(--color4,#000)" d="M18.667 5.297c.579.318.592 1.37.027 2.298s-1.53 1.443-2.109 1.125c-.579-.318-.592-1.37-.027-2.298s1.53-1.442 2.109-1.125zm.097-.16c-.683-.375-1.746.159-2.375 1.192s-.585 2.176.099 2.551c.683.375 1.747-.159 2.375-1.192s.585-2.175-.099-2.551z"/><path fill="#fff" style="fill:var(--color1,#fff)" d="M20.419 10.93c.637.35 1.64-.169 2.242-1.159s.573-2.075-.063-2.424c-.637-.35-1.64.169-2.242 1.159s-.573 2.075.063 2.424z"/><path style="fill:var(--color4,#000)" d="M22.549 7.427c.579.318.592 1.37.027 2.298s-1.53 1.443-2.109 1.125c-.579-.318-.592-1.37-.027-2.298s1.53-1.442 2.109-1.125zm.098-.16c-.683-.375-1.747.159-2.375 1.192s-.584 2.176.099 2.551c.683.375 1.747-.159 2.375-1.192s.585-2.175-.099-2.551zM17.089 7.891c.357.196.916-.088 1.248-.634s.312-1.148-.045-1.344c-.357-.196-.916.088-1.248.634s-.312 1.148.045 1.344z"/><path style="fill:var(--color4,#000)" d="M18.276 5.939c.341.187.356.771.033 1.302s-.863.81-1.204.623c-.341-.187-.356-.771-.033-1.302s.863-.81 1.204-.623zm.033-.054c-.373-.205-.951.085-1.293.646s-.316 1.182.057 1.387c.373.205.951-.085 1.293-.646s.316-1.182-.057-1.387zM20.972 10.021c.357.196.916-.088 1.248-.634s.312-1.148-.045-1.344c-.357-.196-.916.088-1.248.634s-.312 1.148.045 1.344z"/><path style="fill:var(--color4,#000)" d="M22.159 8.069c.341.187.356.771.033 1.302s-.863.81-1.204.623c-.341-.187-.356-.771-.033-1.302s.863-.81 1.204-.623zm.033-.053c-.373-.205-.951.085-1.293.646s-.316 1.182.057 1.387c.373.205.951-.085 1.293-.646s.316-1.182-.057-1.387z"/><path fill="#fff" style="fill:var(--color1,#fff)" d="M17.855 7.134c.215.118.52-.002.682-.268s.119-.577-.096-.695-.52.002-.682.268-.119.577.096.695zM21.738 9.265c.215.118.52-.002.682-.268s.119-.577-.096-.695-.52.002-.682.268-.119.577.096.695z"/><path style="fill:var(--color4,#000)" d="M18.175 3.822a2.36 2.36 0 0 1 1.77.973c.14.197.48.014.34-.184a2.782 2.782 0 0 0-2.111-1.16c-.25-.017-.248.355.001.371zM22.227 6.045a2.36 2.36 0 0 1 1.77.973c.14.197.48.014.34-.184a2.782 2.782 0 0 0-2.111-1.16c-.25-.017-.248.355.001.371z"/><path fill="#fff" style="fill:var(--color1,#fff)" d="M5.322 17.943c.593-.19.809-1.091.483-2.014s-1.073-1.516-1.666-1.327c-.593.19-.809 1.091-.483 2.014s1.073 1.516 1.666 1.327z"/><path style="fill:var(--color4,#000)" d="M4.165 14.678c.54-.173 1.254.412 1.561 1.277s.109 1.741-.431 1.914c-.54.173-1.254-.412-1.561-1.277s-.109-1.741.431-1.914zm-.053-.15c-.637.204-.876 1.15-.535 2.114s1.134 1.58 1.771 1.376c.637-.204.876-1.15.535-2.114s-1.134-1.58-1.771-1.376z"/><path fill="#fff" style="fill:var(--color1,#fff)" d="M8.941 16.787c.593-.19.809-1.091.483-2.014s-1.073-1.516-1.666-1.327-.809 1.091-.483 2.014c.327.922 1.073 1.516 1.666 1.327z"/><path style="fill:var(--color4,#000)" d="M7.785 13.522c.54-.173 1.254.412 1.561 1.277s.109 1.741-.431 1.914-1.254-.412-1.561-1.277c-.306-.865-.109-1.741.431-1.914zm-.053-.15c-.637.204-.876 1.15-.535 2.114s1.134 1.58 1.771 1.376c.637-.204.876-1.15.535-2.114s-1.134-1.58-1.771-1.376zM5.022 17.096c.333-.107.456-.606.276-1.115s-.597-.836-.929-.73c-.333.107-.456.606-.276 1.115s.597.836.929.73z"/><path style="fill:var(--color4,#000)" d="M4.377 15.276c.318-.102.719.218.894.713s.059.98-.259 1.082c-.318.102-.719-.218-.894-.713s-.059-.98.259-1.082zm-.018-.05c-.347.111-.479.625-.293 1.148s.617.857.964.746.479-.625.293-1.148c-.185-.523-.617-.857-.964-.746zM8.641 15.94c.333-.107.456-.606.276-1.115s-.597-.836-.929-.73c-.333.106-.456.606-.276 1.115s.596.836.929.73z"/><path style="fill:var(--color4,#000)" d="M7.997 14.12c.318-.102.719.218.894.713s.059.98-.259 1.082c-.318.102-.719-.218-.894-.713s-.059-.98.259-1.082zm-.018-.05c-.347.111-.479.625-.293 1.148s.617.857.964.746c.347-.111.479-.625.293-1.148s-.617-.857-.964-.746z"/><path fill="#fff" style="fill:var(--color1,#fff)" d="M4.455 16.306c.2-.064.292-.317.204-.565s-.321-.397-.522-.333c-.2.064-.292.317-.204.565s.321.397.522.333zM8.039 15.05c.2-.064.291-.317.204-.565s-.321-.397-.522-.333-.292.317-.204.565c.088.248.321.397.522.333z"/><path style="fill:var(--color4,#000)" d="M3.169 14.006c.088-.303.245-.616.564-.748.298-.123.632-.046.919.07.196.08.345-.203.147-.283-.382-.155-.82-.24-1.213-.072-.414.177-.628.57-.743.968-.057.197.268.259.325.064zM6.987 12.474c.833.089 1.69-.02 2.464-.324.196-.077.091-.378-.106-.3a4.897 4.897 0 0 1-2.291.314c-.211-.023-.28.287-.067.31z"/><path fill="#fff" style="fill:var(--color1,#fff)" d="M18.257 23.549c.628.419 1.721-.032 2.442-1.007s.797-2.106.169-2.524c-.628-.419-1.721.032-2.442 1.008s-.796 2.105-.169 2.524z"/><path style="fill:var(--color4,#000)" d="M20.809 20.096c.571.381.482 1.475-.194 2.39s-1.729 1.365-2.3.984c-.571-.381-.483-1.475.193-2.39s1.73-1.365 2.3-.984zm.117-.158c-.673-.449-1.83.012-2.583 1.031s-.818 2.209-.144 2.659c.673.449 1.83-.012 2.583-1.031s.818-2.209.144-2.659z"/><path fill="#fff" style="fill:var(--color1,#fff)" d="M22.085 26.102c.628.419 1.721-.032 2.442-1.008s.796-2.105.169-2.524c-.628-.419-1.721.032-2.442 1.007s-.796 2.106-.169 2.524z"/><path style="fill:var(--color4,#000)" d="M24.637 22.649c.571.381.482 1.475-.194 2.39s-1.729 1.365-2.3.984c-.571-.381-.483-1.475.194-2.39s1.73-1.365 2.3-.984zm.117-.158c-.674-.45-1.83.012-2.583 1.031s-.818 2.209-.144 2.659 1.83-.012 2.583-1.031c.753-1.019.818-2.209.144-2.659zM19.531 22.274c.352.235.96-.011 1.358-.55s.435-1.166.083-1.401c-.352-.235-.96.011-1.358.55s-.435 1.166-.083 1.401z"/><path style="fill:var(--color4,#000)" d="M20.953 20.349c.336.225.295.832-.091 1.356s-.975.767-1.311.542c-.336-.225-.295-.832.092-1.356s.975-.766 1.311-.542zm.039-.052c-.368-.245-.997.005-1.405.558s-.443 1.2-.075 1.446.997-.005 1.405-.558c.409-.553.443-1.2.075-1.446zM23.414 24.864c.352.235.96-.011 1.358-.55s.435-1.166.083-1.401c-.352-.235-.96.011-1.358.55s-.435 1.166-.083 1.401z"/><path style="fill:var(--color4,#000)" d="M24.836 22.939c.336.225.295.832-.091 1.356s-.975.767-1.311.542c-.336-.225-.295-.832.092-1.356s.975-.766 1.311-.542zm.039-.052c-.368-.245-.997.005-1.405.558s-.443 1.2-.075 1.446c.367.245.997-.005 1.405-.558s.443-1.2.075-1.446z"/><path fill="#fff" style="fill:var(--color1,#fff)" d="M19.342 22.029c.165.11.42.034.571-.17s.139-.458-.026-.568c-.165-.11-.42-.034-.571.17s-.139.458.025.568zM23.242 24.709c.165.11.42.034.571-.17s.139-.458-.025-.568c-.165-.11-.42-.034-.571.17s-.139.458.026.568z"/><path style="fill:var(--color4,#000)" d="M20.309 18.519a2.497 2.497 0 0 1 1.924.974c.154.201.468-.046.315-.246a2.895 2.895 0 0 0-2.204-1.113c-.261-.009-.298.377-.035.385zM24.821 21.135c.732.25 1.272.79 1.517 1.488.083.236.452.073.37-.161-.278-.793-.924-1.409-1.75-1.691-.246-.084-.384.28-.137.365zM18.406 27.379c.248-.189.184-.657-.143-1.046s-.794-.551-1.043-.362c-.248.189-.184.657.143 1.046s.794.551 1.043.362z"/><path style="fill:var(--color4,#000)" d="M18.136 27.638c.505.337.959.551 1.013.479s-.312-.405-.818-.742c-.506-.337-.959-.551-1.013-.479s.312.405.818.742z"/><path style="fill:var(--color4,#000)" d="M18.962 28.097c.477.206.971.15 1.102-.125s-.148-.665-.626-.871c-.477-.206-.971-.15-1.102.125s.148.665.626.871z"/></symbol><symbol id="icon-ice-cream" viewBox="0 0 32 32"><path d="M16.108.107c.08.214.241 1.252.241 1.573 0 .797-.295 1.54-.837 2.122-.449.482-.897.75-1.975 1.185-1.198.489-1.694.783-2.256 1.339-.569.569-.904 1.192-1.024 1.921-.134.797 0 1.359.408 1.68l.208.161-.328.208c-.663.435-1.868 1.459-2.075 1.774-.402.603-.361 1.165.094 1.392l.214.107-.241.228c-.361.341-.435.576-.382 1.192.033.408.02.629-.074.964-.114.435-.114.442.033.75.147.301.562.683.937.843.181.08.187.107.228.723.02.355.053 1.486.08 2.517.02 1.031.067 1.975.107 2.089a.79.79 0 0 0 .274.361c.388.268.656.556.83.89.194.382.408 1.319 1.058 4.559l.455 2.276.281.268c.536.529 1.56.77 3.247.77 1.694 0 2.705-.234 3.24-.763l.288-.274.415-2.109c.917-4.613.997-4.867 1.714-5.436.221-.181.435-.402.475-.502.047-.114.094-.991.127-2.316.027-1.178.067-2.343.094-2.591l.04-.449.435-.328c.549-.422.763-.803.763-1.393-.007-.696-.462-1.459-1.292-2.142l-.395-.321.194-.274c.81-1.118.301-2.664-1.205-3.695l-.455-.315.167-.174c.743-.797.864-3.173.241-4.827-.375-.984-1.232-2.055-2.283-2.845C17.659.857 16.239 0 16.112 0c-.027 0-.027.047-.007.107zm1.928 2.336c.355.348.783.823.951 1.064.997 1.392 1.252 3.14.649 4.425-.241.522-.964 1.299-1.633 1.761-1.024.71-3.327 1.901-4.934 2.557-2.584 1.051-4.084 1.252-4.258.562-.067-.261.127-.469.951-1.018.743-.509 4.077-2.986 4.137-3.086.02-.027-.321.127-.75.341-1.453.736-2.142.596-2.109-.428.02-.743.556-1.587 1.299-2.069.187-.12.77-.388 1.305-.603 1.761-.71 2.296-1.071 2.892-1.962.355-.529.743-1.506.77-1.921.007-.147.034-.261.054-.261s.321.288.676.636zm1.828 7.606c.489.274.997.743 1.218 1.111.388.663.187 1.325-.649 2.169-.91.924-2.464 1.808-4.171 2.37-1.573.515-3.079.756-5.235.83l-1.339.047.87.054c1.125.074 3.3.007 4.144-.127 2.243-.355 4.151-1.064 5.516-2.042.308-.221.629-.402.716-.402.221 0 1.185.924 1.379 1.312.107.221.134.382.114.596-.1.89-1.185 1.366-3.802 1.68-3.2.382-7.384.007-9.172-.817-.844-.388-.984-.609-.77-1.198.067-.187.08-.408.054-.723-.033-.415-.027-.469.12-.623.335-.361.897-.569 2.959-1.091a28.11 28.11 0 0 0 2.176-.656c1.138-.415 3.274-1.493 4.264-2.156.93-.616 1.064-.643 1.607-.335zm-8.89 8.194c1.406.408 2.651.529 4.967.482 1.741-.034 2.812-.141 4.358-.415.315-.053.589-.1.623-.1.074 0 .053 2.571-.027 3.247-.087.716-.281 1.272-.489 1.406-.214.141-1.285.288-2.718.368-2.939.161-5.958 0-6.895-.375-.509-.207-.562-.475-.569-2.959 0-1.654.013-1.881.1-1.848.053.02.348.107.649.194zm1.586 5.69c.482.06 1.004.121 1.165.141l.288.034-.254.281c-.328.355-.83 1.064-1.011 1.426-.207.415-.274.442-.582.274l-.261-.147-.147-.91c-.08-.495-.167-.971-.187-1.051-.06-.174-.12-.174.991-.047zm7.137-.074c0 .013-.033.187-.067.382-.04.201-.208 1.292-.375 2.43-.341 2.377-.569 3.495-.777 3.869-.288.502-.977.797-2.095.89-.435.034-1.747-.053-1.821-.12-.053-.06 1.098-1.486 1.279-1.58.167-.094.214-.08.783.214.663.348.997.402.997.181s-.174-.435-.602-.73c-.395-.281-.536-.442-.536-.629 0-.053.194-.355.428-.669s.576-.817.75-1.118l.328-.542.301.04c.609.087.77.08.75-.053-.013-.067-.127-.261-.254-.422-.127-.167-.228-.335-.228-.368 0-.127.623-1.299.823-1.546.174-.214.315-.321.315-.228zm-4.184.536c.335.221 1.593 1.312 1.674 1.446.034.06-1.259 2.082-1.513 2.37-.027.034-.167-.033-.308-.141a22.133 22.133 0 0 0-1.165-.803l-.904-.596.542-.917c.964-1.613.944-1.587 1.151-1.587.107 0 .341.1.522.228zm2.537.241c-.234.288-.428.469-.509.469-.174 0-.455-.154-.93-.502l-.395-.288.79-.047c.428-.02.844-.047.917-.06.536-.087.536-.08.127.428zm-5.061 3.22c.616.241 1.66.81 1.962 1.064.214.174.214.187.127.402a6.675 6.675 0 0 1-.415.716c-.174.268-.375.602-.449.743-.214.415-.281.449-.723.328-.475-.141-.73-.382-.864-.817-.181-.609-.469-2.33-.435-2.598.013-.1.295-.04.797.161z"/></symbol><symbol id="icon-telegram" viewBox="0 0 32 32"><path fill="#f8d24e" style="fill:var(--color1,#f8d24e)" d="M31.259 16.43c0 8.571-6.946 15.519-15.515 15.519S.229 25.001.229 16.43 7.175.911 15.744.911 31.259 7.859 31.259 16.43z"/><path d="m12.705 18.734-.308 4.044c.441 0 .631-.177.86-.389l2.066-1.843 4.281 2.926c.785.409 1.338.193 1.55-.674l2.811-12.292c.249-1.083-.42-1.507-1.185-1.241L6.264 15.168c-1.127.408-1.11.995-.192 1.261l4.223 1.226 9.808-5.729c.462-.285.881-.127.536.158l-7.934 6.65z"/></symbol><symbol id="icon-weight" viewBox="0 0 32 32"><path d="M14.177.547c-3.974.589-7.247 2.796-8.451 5.685-.384.913-.488 1.473-.488 2.573.007.812.037 1.114.162 1.552.259.863.443 1.301.827 1.919l.355.575-.399.489c-3.154 3.924-3.502 9.444-.872 13.793.982 1.632 2.585 3.234 4.152 4.169l.465.273 12.743-.108.303-.165c1.056-.597 2.549-1.926 3.383-3.004a12.61 12.61 0 0 0 2.423-5.621c.118-.74.118-2.932-.007-3.63-.377-2.149-1.182-3.989-2.453-5.621-.244-.309-.436-.568-.436-.589 0-.014.133-.237.288-.489a7.762 7.762 0 0 0 .864-1.962c.199-.719.199-2.516 0-3.234-.709-2.552-2.837-4.679-5.843-5.851C20.351.97 18.91.618 17.98.503c-.864-.101-2.999-.079-3.804.043zm4.499 1.171c3.945.769 6.833 3.184 7.365 6.16.118.668.044 1.804-.155 2.437-.199.618-.569 1.344-1.005 1.962-.177.252-.325.539-.325.633s.155.338.377.582c1.847 2.048 2.822 4.614 2.822 7.389-.007 3.155-1.219 5.922-3.553 8.093-.399.374-.968.841-1.271 1.042l-.554.374-12.211.05-.473-.302c-1.714-1.114-3.258-2.954-4.115-4.909-1.079-2.472-1.189-5.34-.31-7.913.465-1.337 1.086-2.429 2.031-3.579.384-.46.561-.733.561-.863 0-.108-.192-.46-.443-.827-.886-1.287-1.248-2.717-1.034-4.068.222-1.366.842-2.487 1.987-3.601 1.492-1.445 3.575-2.401 6.02-2.76 1.012-.151 3.25-.093 4.285.101z"/><path d="M14.51 2.983c-3.029.496-5.4 2.178-6.176 4.384-.177.496-.207.69-.207 1.402s.03.906.207 1.402c.111.316.318.755.458.978.384.618.554.64 1.315.18a11.972 11.972 0 0 1 3.804-1.488c.916-.187 2.674-.259 3.671-.144 1.559.18 3.25.74 4.602 1.538.384.223.776.41.872.41.561 0 1.278-1.617 1.278-2.875 0-2.796-2.674-5.189-6.464-5.786-.805-.129-2.585-.129-3.361 0zm3.656 1.15c1.271.273 2.438.791 3.317 1.473 1.182.913 1.817 2.185 1.714 3.414-.037.489-.222 1.15-.332 1.222-.029.014-.443-.158-.916-.388a14.721 14.721 0 0 0-3.228-1.1c-.687-.144-.975-.165-2.512-.158-1.514 0-1.832.022-2.489.158a13.254 13.254 0 0 0-3.117 1.064c-1.101.525-1.042.532-1.241-.115-.258-.841-.096-1.955.406-2.796.266-.446.997-1.186 1.529-1.553 1.012-.697 1.899-1.013 3.804-1.358.391-.072 2.563.029 3.066.137zM16.962 13.405c-.207.259-.207.503.007.712.14.137.281.172.79.208.99.072 1.935.359 2.785.848.606.359 1.529 1.229 1.943 1.854.613.898 1.034 2.185 1.034 3.134 0 .331.029.431.185.575.236.237.547.237.776 0 .163-.165.17-.208.125-.913-.207-3.479-3.184-6.383-6.744-6.577l-.739-.043-.163.201z"/></symbol></defs></svg>